# xmcd
#
# Track frame offsets:
#	150
#	27512
#	45884
#	65651
#	81900
#	99231
#	113898
#	130216
#	142593
#	159730
#	178486
#	194354
#
# Disc length: 2829 seconds
#
# Revision: 1
# Processed by: cddbd v1.5.2PL0 Copyright (c) Steve Scherf et al.
# Submitted via: dBpowerAMP V4.0
#
DISCID=a10b0b0c
DTITLE=Various Artist - Today, Tomorrow, Forever
DYEAR=2006
DGENRE=Country
TTITLE0=Lee Ann Womack - I Saw Your Light
TTITLE1=Joe Nichols - That Would Be Her
TTITLE2=SHeDAISY - Still Holding Out For You
TTITLE3=Josh Turner - In My Dreams
TTITLE4=Reba McEntire - Forever Love
TTITLE5=Billy Currington - I Got A Feelin'
TTITLE6=Terri Clark - Now That I Found You
TTITLE7=Gary Allan - Her Man
TTITLE8=Tracy Lawrence - Paint Me A Birmingham
TTITLE9=Rascal Flatts - You
TTITLE10=George Strait - I Cross My Heart
TTITLE11=Vince Gill - I Still Believe In You
EXTD=Corrected typos.
EXTT0=
EXTT1=
EXTT2=
EXTT3=
EXTT4=
EXTT5=
EXTT6=
EXTT7=
EXTT8=
EXTT9=
EXTT10=
EXTT11=
PLAYORDER=
